<svg width="32" height="32" viewBox="0 0 32 32" fill="none" xmlns="http://www.w3.org/2000/svg">
<g clip-path="url(#clip0)">
<path d="M6.55486 13.4665L9.27268 15.1332L11.8033 13.1871L11.056 16.291L13.6883 18.0977L10.5055 18.3447L9.60099 21.4019L8.37377 18.4561L5.19316 18.5416L7.61403 16.4769L6.55486 13.4665ZM11.7516 7.72265L13.5063 8.80576L15.1434 7.54538L14.6603 9.55176L16.3618 10.7196L14.3019 10.8783L13.7226 12.8573L12.9377 10.9521L10.87 11.0067L12.4432 9.66375L11.7516 7.72265ZM17.1899 8.0773C16.8178 7.33109 17.6005 6.07733 18.4906 6.30335C19.0254 6.44083 19.5393 6.60774 20.0633 6.85649C25.1335 9.09841 27.4019 15.008 25.1306 20.0573C22.8908 25.1053 16.9719 27.3773 11.9298 25.1246C11.413 24.8946 10.9264 24.6315 10.4664 24.326C9.7028 23.8158 10.1108 22.3952 10.9143 22.1725C13.6811 21.3996 16.1098 19.439 17.366 16.6003C17.9692 15.2552 18.2663 13.7929 18.2359 12.319C18.2054 10.8451 17.8482 9.39637 17.1899 8.0773ZM19.6635 8.88446C20.558 11.6856 20.4 14.7169 19.2192 17.4099C17.9523 20.2206 15.7447 22.3106 13.1693 23.4706C17.1078 24.9686 21.5682 23.1386 23.3089 19.2463C25.0367 15.3482 23.4121 10.8089 19.6635 8.88446Z" fill="#7B61FF"/>
</g>
<defs>
<clipPath id="clip0">
<rect width="24" height="24" fill="white" transform="translate(9.09753 31.5033) rotate(-111)"/>
</clipPath>
</defs>
</svg>
