<svg width="22" height="22" viewBox="0 0 22 22" fill="none" xmlns="http://www.w3.org/2000/svg">
<path d="M10.7977 17.1822C10.9264 17.1822 11.0511 17.2273 11.15 17.3097C11.2489 17.3921 11.3157 17.5066 11.3389 17.6332L11.3477 17.7322V19.0698C11.348 19.2072 11.2968 19.3398 11.2042 19.4414C11.1116 19.5429 10.9843 19.6061 10.8474 19.6186C10.7105 19.631 10.574 19.5917 10.4646 19.5085C10.3552 19.4252 10.281 19.304 10.2565 19.1688L10.2477 19.0698V17.7322C10.2477 17.5863 10.3057 17.4464 10.4088 17.3433C10.5119 17.2401 10.6518 17.1822 10.7977 17.1822ZM16.0084 15.2352L16.0843 15.299L17.0303 16.245C17.1278 16.342 17.1853 16.472 17.1917 16.6093C17.198 16.7467 17.1527 16.8814 17.0647 16.987C16.9766 17.0926 16.8522 17.1614 16.7159 17.1798C16.5797 17.1982 16.4414 17.1649 16.3285 17.0865L16.2515 17.0227L15.3055 16.0767C15.2069 15.9799 15.1484 15.8494 15.1415 15.7114C15.1347 15.5733 15.1802 15.4378 15.2688 15.3317C15.3574 15.2256 15.4827 15.1568 15.6197 15.1389C15.7568 15.121 15.8956 15.1554 16.0084 15.2352ZM6.28771 15.299C6.37882 15.39 6.43511 15.5101 6.44677 15.6383C6.45843 15.7666 6.42472 15.8949 6.35151 16.0008L6.28771 16.0767L5.34171 17.0227C5.24471 17.1201 5.11472 17.1777 4.97737 17.1841C4.84002 17.1904 4.70527 17.1451 4.59967 17.057C4.49408 16.969 4.4253 16.8446 4.40689 16.7083C4.38848 16.572 4.42177 16.4338 4.50021 16.3209L4.56401 16.245L5.51001 15.299C5.61315 15.1959 5.75302 15.138 5.89886 15.138C6.0447 15.138 6.18457 15.1959 6.28771 15.299ZM10.8087 5.8698C11.4659 5.85593 12.1193 5.97339 12.7306 6.21531C13.3418 6.45723 13.8986 6.81874 14.3683 7.27864C14.838 7.73854 15.2112 8.28758 15.466 8.89358C15.7207 9.49957 15.8519 10.1503 15.8519 10.8077C15.8519 11.4651 15.7207 12.1158 15.466 12.7218C15.2112 13.3278 14.838 13.8769 14.3683 14.3368C13.8986 14.7967 13.3418 15.1582 12.7306 15.4001C12.1193 15.642 11.4659 15.7595 10.8087 15.7456C9.51715 15.7183 8.28767 15.1861 7.38389 14.2631C6.4801 13.34 5.97395 12.0996 5.97395 10.8077C5.97395 9.51585 6.4801 8.27541 7.38389 7.35235C8.28767 6.42928 9.51715 5.89706 10.8087 5.8698ZM19.051 10.2775C19.1885 10.2772 19.321 10.3285 19.4226 10.4211C19.5241 10.5137 19.5874 10.6409 19.5998 10.7778C19.6122 10.9147 19.5729 11.0513 19.4897 11.1606C19.4064 11.27 19.2853 11.3442 19.15 11.3687L19.051 11.3775H17.7134C17.576 11.3778 17.4434 11.3265 17.3419 11.2339C17.2403 11.1413 17.1771 11.0141 17.1646 10.8772C17.1522 10.7403 17.1915 10.6038 17.2748 10.4944C17.358 10.385 17.4792 10.3108 17.6144 10.2863L17.7134 10.2775H19.051ZM3.88861 10.25C4.02605 10.2497 4.15861 10.301 4.26018 10.3936C4.36174 10.4862 4.42496 10.6134 4.43738 10.7503C4.44979 10.8872 4.41052 11.0238 4.32727 11.1331C4.24403 11.2425 4.12286 11.3167 3.98761 11.3412L3.88861 11.35H2.55101C2.41357 11.3503 2.28102 11.299 2.17945 11.2064C2.07789 11.1138 2.01467 10.9866 2.00225 10.8497C1.98983 10.7128 2.02911 10.5763 2.11236 10.4669C2.1956 10.3575 2.31677 10.2833 2.45201 10.2588L2.55101 10.25H3.88861ZM5.26581 4.5344L5.34281 4.5982L6.28881 5.5442C6.38626 5.64121 6.44383 5.7712 6.45019 5.90855C6.45654 6.0459 6.41122 6.18065 6.32316 6.28624C6.2351 6.39184 6.11067 6.46062 5.97442 6.47902C5.83816 6.49743 5.69994 6.46414 5.58701 6.3857L5.51001 6.3219L4.56401 5.3759C4.46657 5.27889 4.409 5.1489 4.40264 5.01155C4.39628 4.8742 4.4416 4.73945 4.52967 4.63386C4.61773 4.52826 4.74215 4.45949 4.87841 4.44108C5.01467 4.42267 5.15288 4.45596 5.26581 4.5344ZM17.0303 4.5982C17.1214 4.6892 17.1777 4.80929 17.1894 4.93754C17.201 5.06579 17.1673 5.19406 17.0941 5.3L17.0303 5.3759L16.0843 6.3219C15.9873 6.41934 15.8573 6.47692 15.72 6.48327C15.5826 6.48963 15.4479 6.44431 15.3423 6.35625C15.2367 6.26818 15.1679 6.14376 15.1495 6.0075C15.1311 5.87124 15.1644 5.73303 15.2428 5.6201L15.3066 5.5431L16.2526 4.5971C16.3558 4.49399 16.4956 4.43607 16.6415 4.43607C16.7873 4.43607 16.9272 4.49399 17.0303 4.5971V4.5982ZM10.801 2C10.9297 1.99996 11.0544 2.04507 11.1533 2.12748C11.2522 2.20989 11.319 2.32437 11.3422 2.451L11.351 2.55V3.8876C11.3513 4.02504 11.3001 4.1576 11.2075 4.25916C11.1149 4.36073 10.9876 4.42394 10.8507 4.43636C10.7138 4.44878 10.5773 4.4095 10.4679 4.32626C10.3585 4.24302 10.2843 4.12184 10.2598 3.9866L10.251 3.8876V2.5511C10.251 2.40523 10.309 2.26534 10.4121 2.16219C10.5152 2.05905 10.6551 2.0011 10.801 2.0011V2Z" fill="#FFD600"/>
</svg>
